<svg preserveAspectRatio="none" width="100%" height="100%" overflow="visible" style="display: block;" viewBox="0 0 111.914 16.0786" fill="none" xmlns="http://www.w3.org/2000/svg">
<g id="Group 5">
<path id="Path 10" d="M99.1413 1.94733C99.1325 2.94599 98.5441 3.67899 97.5481 3.88856C96.6582 4.07565 95.7045 3.57797 95.3642 2.74889C94.9843 1.82308 95.3111 0.800698 96.1583 0.283974L96.1676 0.27833C96.8559 -0.136848 97.745 -0.0827019 98.3803 0.408492C98.8446 0.767452 99.1477 1.24167 99.1413 1.94733Z" fill="var(--fill-0, #191A1E)"/>
<path id="Path 11" d="M0 15.6427V1.58358C0.280969 1.55739 0.502894 1.51929 0.724831 1.51903C2.76414 1.5151 4.80374 1.49707 6.84254 1.53124C7.43626 1.54129 8.04677 1.64156 8.61636 1.81057C11.5828 2.69079 11.644 6.62899 9.86477 7.97664C9.73091 8.07788 9.60665 8.1915 9.42467 8.34411C9.57403 8.44424 9.67905 8.52899 9.7963 8.59072C11.8227 9.65799 12.0644 12.0211 11.3384 13.6269C10.7174 15.0007 9.52919 15.6537 8.12145 15.7079C5.51175 15.8087 2.89555 15.7443 0.282093 15.7438C0.20417 15.7438 0.126391 15.6897 0 15.6427ZM3.27223 12.7418C4.5761 12.7418 5.79926 12.7683 7.02027 12.7288C7.51014 12.713 7.95725 12.5114 8.19123 12.0028C8.64309 11.0204 8.03959 9.9908 6.92275 9.94865C5.80984 9.90676 4.69415 9.93784 3.57976 9.94657C3.47819 9.94737 3.37691 10.0173 3.27223 10.0564V12.7418ZM3.29391 4.60993V7.15616C3.66896 7.15616 4.00538 7.15784 4.3416 7.15581C5.11585 7.15149 5.89318 7.18575 6.66349 7.1279C7.37022 7.07476 7.77657 6.55804 7.7857 5.84629C7.79467 5.14694 7.46185 4.66897 6.74633 4.62757C5.61303 4.56165 4.47288 4.60993 3.29391 4.60993Z" fill="var(--fill-0, #191A1E)"/>
<path id="Path 12" d="M72.3372 15.7185H69.3086V0.382535H72.3069V5.88117C72.4926 5.82116 72.5961 5.81975 72.6409 5.76847C74.1786 4.00732 77.8211 4.49622 79.1156 6.77251C79.5151 7.47486 79.8842 8.29517 79.9235 9.07852C80.0325 11.2587 79.9613 13.4479 79.9613 15.6965H77.0281C77.0133 15.4364 76.9858 15.1651 76.9849 14.8937C76.9805 13.4707 76.9937 12.0475 76.976 10.6248C76.9705 10.1729 76.9253 9.71456 76.8347 9.27213C76.5929 8.09366 75.8002 7.51614 74.5358 7.55242C73.4069 7.58474 72.567 8.30103 72.4076 9.40613C72.3468 9.82664 72.3428 10.2574 72.3403 10.6835C72.3322 12.0211 72.3373 13.3587 72.3372 14.6963C72.3372 15.0044 72.3372 15.3126 72.3372 15.7185Z" fill="var(--fill-0, #191A1E)"/>
<path id="Path 13" d="M55.5119 15.7581C54.4231 15.7581 53.3343 15.7455 52.2458 15.7646C51.8288 15.7719 51.6365 15.4964 51.4185 15.2382C50.46 14.1034 49.5067 12.9642 48.5489 11.8287C48.4269 11.6842 48.2902 11.5519 48.0013 11.4572V15.7144H45.0808C44.8905 15.1008 44.8184 1.83535 45.0021 0.392371H47.9993C48.0474 3.31824 47.9959 6.25548 48.0307 9.40754C48.7569 8.54835 49.3422 7.85773 49.9254 7.16551C50.4225 6.57564 50.9063 5.97434 51.4201 5.39929C51.581 5.21912 51.8162 4.99205 52.0249 4.98437C53.1308 4.9431 54.2391 4.9651 55.3467 4.9651C55.3796 5.02728 55.4128 5.08958 55.4457 5.15193C53.9337 6.8405 52.4217 8.52899 50.8623 10.2705C52.4577 12.0569 54.0267 13.8135 55.5959 15.5703L55.5119 15.7581Z" fill="var(--fill-0, #191A1E)"/>
<path id="Path 14" d="M93.2358 15.6996C92.9823 15.7253 92.8161 15.7555 92.6496 15.7567C91.9639 15.7624 91.2781 15.7592 90.511 15.7592V14.2758C90.386 14.2955 90.3198 14.2876 90.3053 14.3109C88.7328 16.8534 84.6794 16.4983 82.8111 14.1377C81.285 12.2091 81.1949 10.0333 82.1572 7.86364C83.0761 5.79115 84.839 4.81136 87.0901 4.75325C87.8815 4.7327 88.7168 4.78587 89.4645 5.01798C91.7674 5.73352 93.0187 7.41835 93.2039 9.73578C93.3595 11.6816 93.2358 13.6491 93.2358 15.6996ZM90.1593 10.4004C90.1676 8.6757 89.0927 7.55041 87.4378 7.55138C85.8102 7.55235 84.6531 8.73919 84.6679 10.3924C84.6829 12.0488 85.7655 13.1594 87.3862 13.1807C89.0802 13.2029 90.1508 12.1293 90.1593 10.4004Z" fill="var(--fill-0, #191A1E)"/>
<path id="Path 15" d="M24.5349 4.72681C27.4448 4.74144 29.6409 6.37076 30.1988 9.10006C31.0721 13.3735 27.846 16.4558 23.8007 16.0173C21.0433 15.7182 19.1547 13.9704 18.7262 11.5451C18.0542 7.74196 20.6397 4.70692 24.5349 4.72681ZM27.21 10.3909C27.2145 8.66848 26.1359 7.54725 24.4786 7.55157C22.8537 7.55598 21.697 8.75041 21.7186 10.4019C21.7404 12.0597 22.8237 13.1636 24.4463 13.181C26.1376 13.1991 27.2054 12.1211 27.21 10.3909Z" fill="var(--fill-0, #191A1E)"/>
<path id="Path 16" d="M40.038 11.6205H42.9614C42.9327 13.9405 40.4448 16.0176 37.6177 16.0646C34.1092 16.1229 31.7168 13.7985 31.5648 10.6301C31.4224 7.66248 33.5797 5.0502 36.5136 4.76378C39.9237 4.43092 42.5922 6.19168 43.018 9.14418C42.0901 9.29092 41.1584 9.25185 40.2335 9.16838C40.065 9.15308 39.9015 8.8891 39.7686 8.71515C39.008 7.72099 37.8337 7.31344 36.6449 7.64445C35.3277 8.0113 34.506 9.26768 34.6715 10.6617C34.8568 12.2225 35.8011 13.117 37.3001 13.182C38.5474 13.2361 39.4536 12.7121 40.038 11.6205Z" fill="var(--fill-0, #191A1E)"/>
<path id="Path 17" d="M67.3398 11.6181C66.9506 14.3723 64.3422 16.2724 61.3509 16.0628C58.1142 15.8359 55.8979 13.5409 55.8746 10.3917C55.8529 7.44333 58.0349 4.99838 60.9009 4.75935C64.3029 4.47566 66.8539 6.17068 67.3502 9.1543C66.9334 9.17842 66.5244 9.20911 66.1146 9.22349C65.7992 9.2346 65.482 9.20876 65.1676 9.22944C64.6719 9.26185 64.3375 9.1237 64.0275 8.67299C63.2754 7.57913 61.8227 7.24218 60.5712 7.77195C59.4911 8.22924 58.8223 9.4876 58.9992 10.7293C59.1779 11.9836 59.8705 12.8399 60.9177 13.1022C62.2475 13.4352 63.3809 13.0255 64.1631 11.9283C64.2282 11.8369 64.2893 11.7429 64.3742 11.6181H67.3398Z" fill="var(--fill-0, #191A1E)"/>
<path id="Path 18" d="M111.87 15.7232H108.935C108.918 15.4468 108.887 15.177 108.886 14.907C108.881 13.4852 108.896 12.0635 108.876 10.642C108.87 10.1622 108.824 9.67469 108.724 9.20567C108.482 8.07222 107.642 7.50069 106.371 7.55369C105.26 7.5999 104.47 8.28016 104.313 9.36357C104.252 9.78368 104.245 10.2138 104.242 10.6397C104.233 12.0044 104.242 13.3691 104.236 14.7339C104.235 15.041 104.207 15.3478 104.188 15.7054H101.204C101.181 15.4954 101.148 15.3322 101.148 15.1688C101.147 13.3776 101.114 11.5854 101.159 9.7951C101.237 6.69437 103.213 4.78219 106.345 4.73426C106.86 4.72637 107.387 4.7299 107.889 4.82545C110.156 5.2569 111.677 6.80887 111.839 9.15871C111.986 11.3052 111.87 13.4694 111.87 15.7232Z" fill="var(--fill-0, #191A1E)"/>
<path id="Path 19" d="M16.5819 0.38653V15.6893H13.602V0.38653H16.5819Z" fill="var(--fill-0, #191A1E)"/>
<path id="Path 20" d="M98.5705 15.7217H95.6979V5.02306H98.5239C98.7751 5.64327 98.8217 14.8234 98.5705 15.7217Z" fill="var(--fill-0, #191A1E)"/>
</g>
</svg>
