<svg preserveAspectRatio="none" width="100%" height="100%" overflow="visible" style="display: block;" viewBox="0 0 149.6 44" fill="none" xmlns="http://www.w3.org/2000/svg">
<g id="Group 4">
<path id="Path 6" d="M111.069 34.7208H111.336C111.354 34.7208 111.372 34.7189 111.39 34.718C113.605 34.696 115.821 34.6435 118.036 34.6354C119.672 34.6294 121.465 34.1187 122.91 33.3409C127.75 30.7355 131.757 27.0474 135.587 23.1674C136.725 22.0146 136.191 21.1586 135.239 20.2935C132.403 17.715 129.471 15.2281 126.772 12.5152C124.776 10.5092 122.477 9.92634 119.771 9.93604C107.181 9.98044 94.5904 9.9557 82 9.9557V9.96346C72.2647 9.96346 62.5294 9.9628 52.7941 9.96457H1.84185C0.824643 9.96457 4.88281e-05 10.7812 4.88281e-05 11.7885V33.5036C4.88281e-05 34.1804 0.553972 34.7289 1.23737 34.7289L42.1606 34.7258C42.3191 34.7281 42.4872 34.7291 42.6669 34.7289C65.1394 34.7183 87.6118 34.7935 110.084 34.7289C110.412 34.7279 110.74 34.7236 111.069 34.7208Z" fill="var(--fill-0, white)"/>
<path id="Path 7" d="M142.542 34.9834C144.54 34.9813 144.691 34.7114 143.676 32.9469C142.71 31.2672 141.738 29.5908 140.758 27.9194C139.995 26.6184 139.215 25.3273 138.339 23.8587C137.81 24.4403 137.499 24.8558 137.116 25.1909C133.25 28.5746 129.515 32.1247 125.455 35.2638C121.935 37.9864 117.902 39.997 113.424 40.9057C111.444 41.3075 109.407 40.6407 108.01 39.1941C107.621 38.7914 107.239 38.4484 106.731 37.9685C106.804 41.5153 108.787 43.7854 111.942 43.9745C113.021 44.0393 114.132 43.9805 115.197 43.7988C119.308 43.0978 122.9 41.1876 126.208 38.7835C127.712 37.6902 128.983 37.6457 130.639 38.424C133.798 39.9095 137.034 41.2469 140.293 42.5075C142.197 43.2437 143.802 42.9312 145.049 41.7565C145.271 41.5474 145.162 41.1741 144.863 41.1095C140.409 40.1487 136.369 38.4142 133.015 35.2414C136.247 34.9842 139.395 34.9866 142.542 34.9834Z" fill="var(--fill-0, white)"/>
<path id="Path 8" d="M119.084 4.63637C126.855 7.91427 133.074 13.1544 138.721 19.9043C140.745 16.8218 142.81 13.6773 144.875 10.5317C145.073 10.231 144.854 9.83288 144.492 9.83288H133.839C138.092 5.7983 142.692 3.55287 148.215 2.48587C146.482 0.927677 144.717 0.821766 142.876 1.10934C138.879 1.73356 135.307 3.39837 132.056 5.71034C130.556 6.77782 129.327 6.65595 127.818 5.72952C125.286 4.1752 122.681 2.71727 120.014 1.40286C117.446 0.136872 114.693 -0.379014 111.817 0.301471C109.045 0.957175 107.54 3.04845 107.92 5.72731C111.908 2.87243 114.265 2.60342 119.084 4.63637Z" fill="var(--fill-0, white)"/>
<path id="Path 9" d="M144.204 19.4694C145.666 17.2287 147.075 14.9404 148.316 12.5745C149.605 10.1153 149.794 7.47695 149.447 4.77556C149.414 4.51312 149.044 4.47807 148.962 4.72984C147.235 10.0122 144.783 14.9167 141.61 19.4707C140.555 20.984 140.657 22.3255 141.694 23.8528C144.595 28.1219 146.963 32.6504 147.955 37.7723C148.119 38.6207 148.27 39.4717 148.425 40.3219C148.45 40.4552 148.578 40.5442 148.712 40.5216C148.824 40.503 148.908 40.4113 148.916 40.2996C148.932 40.0961 148.949 39.8927 148.953 39.6889C149.071 33.8634 146.797 28.7165 144.163 23.7182C143.342 22.1618 143.24 20.9476 144.204 19.4694Z" fill="var(--fill-0, white)"/>
</g>
</svg>
