<svg width="21" height="21" viewBox="0 0 21 21" fill="none" xmlns="http://www.w3.org/2000/svg">
<path d="M6.98439 10.9673C4.8934 9.40392 3.40328 7.68433 2.58964 6.71761C2.33778 6.41835 2.25524 6.19935 2.20563 5.81358C2.0357 4.49266 1.95075 3.83221 2.33807 3.40585C2.7254 2.97949 3.41034 2.97949 4.78024 2.97949H14.4698C15.8397 2.97949 16.5246 2.97949 16.9119 3.40585C17.2993 3.83221 17.2143 4.49266 17.0444 5.81359C16.9947 6.19936 16.9122 6.41836 16.6603 6.71761C15.8456 7.68557 14.3525 9.40821 12.2573 10.9735C12.0677 11.1151 11.9427 11.3459 11.9195 11.6019C11.712 13.8964 11.5206 15.1531 11.4014 15.7889C11.2092 16.8153 9.75373 17.4328 8.97463 17.9837C8.51088 18.3117 7.94806 17.9213 7.88796 17.4136C7.77339 16.4459 7.55759 14.4799 7.32203 11.6019C7.30087 11.3435 7.17547 11.1101 6.98439 10.9673Z" stroke="black" stroke-width="1.1" stroke-linecap="round" stroke-linejoin="round"/>
</svg>
